<svg width="800" height="800" xmlns="http://www.w3.org/2000/svg" stroke="null">
 <g stroke="null">
  <title stroke="null">Layer 1</title>
  <rect fill="#e2e8f0" y="0.0012" width="802.00005" height="804.99999" id="svg_2" x="-1.00119" stroke="null"/>
  <path fill="#94a3b8" opacity="NaN" d="m83,723" id="svg_1" stroke="null"/>
  <g id="svg_3" stroke="null"/>
  <path stroke="null" d="m732.02173,753.88917a385.70761,385.70761 0 0 0 -214.42403,-173.20093a230.08242,230.08242 0 1 0 -235.19536,0a385.70761,385.70761 0 0 0 -214.42403,173.20093a25.56471,25.56471 0 1 0 44.09913,25.56471a332.66083,332.66083 0 0 1 575.84516,0a25.56471,25.56471 0 1 0 44.09913,-25.56471zm-510.9747,-370.68834a178.95299,178.95299 0 1 1 178.95299,178.95299a178.95299,178.95299 0 0 1 -178.95299,-178.95299z" fill="#94a3b8"/>
 </g>

</svg>